PathFileType	4	(X/Y/Z)	C:\Users\WrightLab\Desktop\Jo\P1.2Trial6.trc
DataRate	CameraRate	NumFrames	NumMarkers	Units	OrigDataRate	OrigDataStartFrame	OrigNumFrames
100.00	100.00	       8	19	mm	100.00	204	       542
Frame#	Time	Headset_Front			Headset_Back			Headset_Left			Headset_Right			Left_Shoulder			Right_Shoulder			Sternum			C7			Left Elbow			Right Elbow			Left Wrist			Right Wrist			Left ASIS			Right ASIS			S2			Left Knee			Right Knee			Left Ankle			Right Ankle			
		X1	Y1	Z1	X2	Y2	Z2	X3	Y3	Z3	X4	Y4	Z4	X5	Y5	Z5	X6	Y6	Z6	X7	Y7	Z7	X8	Y8	Z8	X9	Y9	Z9	X10	Y10	Z10	X11	Y11	Z11	X12	Y12	Z12	X13	Y13	Z13	X14	Y14	Z14	X15	Y15	Z15	X16	Y16	Z16	X17	Y17	Z17	X18	Y18	Z18	X19	Y19	Z19	

204	2.030	-530.96466	1408.79468	244.61140	-655.06561	1504.78955	-16.92136	-503.62155	1452.57080	41.08503	-671.39972	1438.90625	198.06796	-448.79556	1245.75171	-78.24790	-796.57654	1244.97131	162.48235	-554.60101	1177.33057	139.84352	-685.41742	1308.24829	-47.80886	-425.06549	962.72748	-164.89859	-893.15710	1000.99744	169.84454	-311.79211	758.99219	-114.31688	-934.22510	760.14752	265.94638	-459.14944	866.44293	63.87135	-701.36578	857.80249	198.13718	-714.56958	913.71967	-118.62349	-413.26157	468.31891	144.38953	-749.58698	436.05206	198.23695	-582.75446	198.24236	-67.49873	-792.80750	112.14755	161.59309	
205	2.040	-525.08539	1409.51086	253.70163	-650.97827	1505.75952	-7.41818	-499.33813	1453.83044	49.36214	-666.37836	1440.54883	207.46274	-446.19852	1248.21167	-72.15691	-791.65015	1246.46753	170.82932	-550.44049	1179.31506	147.54376	-682.54626	1310.22461	-38.36866	-424.27310	965.56836	-158.54630	-888.69196	1003.76007	182.23022	-309.12735	761.65680	-111.00736	-924.16516	763.02124	284.10959	-454.75378	867.81824	70.26965	-694.42865	859.78058	207.28156	-712.64099	915.04034	-108.96026	-404.42062	475.53030	153.53723	-748.09491	434.73773	201.40355	-571.72943	193.16704	-44.31749	-793.86804	111.78843	161.25026	
206	2.050	-520.33301	1410.05115	261.31445	-647.51709	1508.22925	0.64513	-495.04813	1455.12268	56.78939	-660.88391	1441.53235	216.41635	-443.40155	1249.79846	-65.49265	-786.74182	1248.83606	181.40622	-546.06982	1181.06531	155.38422	-679.14056	1311.63904	-29.28952	-422.88416	968.25061	-153.17584	-884.34546	1005.75403	195.64037	-305.74625	764.35498	-108.12221	-915.38184	765.14008	300.58359	-450.41177	870.06049	77.52670	-688.55902	861.24683	215.60269	-710.97028	917.12775	-100.45479	-395.95633	481.84882	162.79453	-746.61719	434.58197	205.19684	-559.57239	187.73296	-19.96751	-794.53394	111.10110	162.36272	
207	2.060	-514.77209	1410.94958	269.31339	-643.42700	1509.37097	10.02934	-490.56119	1455.82080	64.93108	-655.35223	1442.02869	225.16772	-439.72336	1251.31714	-58.01286	-781.91888	1250.27332	190.72180	-541.83429	1182.81372	163.13069	-676.75940	1313.55273	-21.14979	-422.39771	970.48279	-148.48900	-879.99438	1008.20978	207.30722	-303.51334	765.87823	-103.81467	-907.59924	767.66736	317.23541	-445.92419	872.64825	84.08904	-683.20227	862.59332	224.62085	-708.74646	918.13605	-91.15996	-388.14285	487.58279	170.23933	-743.95782	433.06891	209.46046	-545.80475	182.19910	1.37352	-795.65698	111.72327	163.99542	
208	2.070	-509.28668	1411.15808	276.84940	-639.30841	1509.87903	18.44848	-486.54175	1456.40234	72.60670	-650.97321	1442.96497	234.18239	-436.49371	1252.49438	-50.96910	-777.01459	1251.94348	199.49696	-536.22723	1183.71326	170.49638	-673.44171	1314.46716	-12.56737	-420.97244	971.49475	-141.08636	-875.55054	1010.32123	218.90886	-300.85800	767.53418	-100.25640	-898.68378	770.05475	333.10880	-442.81909	873.65295	90.45783	-677.49896	864.05176	233.70839	-706.85773	919.58063	-82.57695	-380.55002	492.65591	177.82742	-741.58722	433.43759	214.70230	-531.06323	176.79372	22.68390	-796.51837	110.65756	165.18277	
209	2.080	-504.42026	1412.32556	285.81116	-635.10901	1510.54590	26.97777	-481.66287	1456.16931	80.47112	-645.41516	1443.19031	242.45995	-433.24115	1253.43469	-43.51403	-772.41498	1252.86682	208.31599	-532.00348	1184.26233	178.40454	-669.68225	1315.22656	-4.27562	-418.91031	973.04297	-135.45035	-871.70782	1012.15295	230.27199	-298.57938	768.83441	-95.71053	-889.50983	772.28101	348.44995	-437.86038	873.79437	96.54218	-671.49677	864.11102	242.13176	-703.75781	919.92572	-73.48153	-372.61267	496.97351	186.96687	-738.35602	432.95135	218.71989	-514.29523	170.73448	43.70140	-796.66229	109.11983	165.37111	
210	2.090	-497.91373	1411.19263	292.93124	-630.71045	1510.81445	35.34429	-477.46597	1456.52600	87.44423	-639.77026	1443.27344	250.66737	-429.58722	1253.81934	-35.79857	-766.97021	1253.99719	218.62035	-527.11646	1185.03857	186.40880	-666.14374	1315.34094	4.87212	-416.93552	974.28333	-129.86610	-867.13416	1013.49664	242.55818	-296.67685	769.24005	-91.91875	-879.94452	773.24384	364.45987	-433.52917	875.58392	103.20905	-665.97333	865.41626	251.46835	-700.67072	920.40747	-64.12517	-365.33737	500.59579	193.76505	-735.27820	433.10956	224.61240	-496.08008	164.62263	64.90150	-796.79865	110.06993	168.67635	
211	2.100	-492.59000	1411.81567	300.53915	-626.24335	1510.80530	44.06448	-472.58783	1456.07813	95.13942	-634.47913	1443.76086	259.21277	-425.75262	1253.80762	-28.66411	-762.07617	1255.31360	228.68291	-522.80829	1185.11108	194.70990	-662.11829	1315.31787	13.30630	-414.09311	974.87537	-123.25278	-862.83698	1014.40240	253.64224	-294.59735	769.53699	-87.01242	-870.77985	775.38989	379.14618	-428.88525	875.39026	110.57501	-662.01520	864.63593	257.17776	-697.55743	920.34320	-56.12695	-358.17111	503.17874	201.02496	-731.48950	432.69754	229.75635	-476.57184	158.57008	85.53610	-796.81378	110.76434	169.66528	
